<svg xmlns="http://www.w3.org/2000/svg" viewBox="0 0 871.3 246.2"><defs><style>.a{isolation:isolate;}.b{mix-blend-mode:darken;}.c{fill:#269dd8;}.d{fill:#f6921e;}.e{fill:#4bb649;}.f{fill:#d91c5c;}.g{font-size:133.81px;fill:#fff;font-family:FranklinGothic-Heavy, Franklin Gothic Heavy;font-weight:800;}.h{font-size:55.3px;fill:#d1d3d4;font-family:FranklinGothic-Book, Franklin Gothic Book;}.i{letter-spacing:-0.01em;}.j{letter-spacing:0em;}.k{letter-spacing:0.03em;}</style></defs><g class="a"><g class="b"><path class="c" d="M91.9,55.9c19-16.8,21.6-29.9,30.3-22.1,51.8,47.1,68.9,13.9,73,41.5,1.2,8.1,6.2,21.6-.1,28.7-4.7,5.3-12.9,3.6-19.2,3.1-34-2.8-52.7-13.8-80.2-31C82.4,67.8,83.7,63,91.9,55.9Z"/></g><path class="c" d="M147.1,39.4a23.1,23.1,0,0,1,0-32.6,22.9,22.9,0,0,1,32.6,0,23.1,23.1,0,0,1-32.6,32.6Z"/><g class="b"><path class="d" d="M190.3,91.9c16.8,19,29.9,21.6,22.1,30.3-47.1,51.8-13.9,69-41.5,73-8.1,1.2-21.6,6.2-28.7,0-5.3-4.8-3.6-13-3.1-19.3,2.8-34,13.8-52.7,31-80.2C178.4,82.4,183.2,83.7,190.3,91.9Z"/></g><path class="d" d="M206.8,147.1a23.1,23.1,0,1,1,0,32.6A23.1,23.1,0,0,1,206.8,147.1Z"/><g class="b"><path class="e" d="M154.3,190.3c-19,16.8-21.6,29.9-30.3,22.1-51.8-47.1-69-13.9-73-41.5-1.2-8.1-6.2-21.6,0-28.7,4.8-5.3,13-3.6,19.3-3.1,34,2.8,52.7,13.8,80.2,31C163.8,178.4,162.5,183.2,154.3,190.3Z"/></g><path class="e" d="M99.1,206.8a23.1,23.1,0,1,1-32.6,0A23.1,23.1,0,0,1,99.1,206.8Z"/><g class="b"><path class="f" d="M55.9,154.3C39.1,135.3,26,132.7,33.8,124,80.9,72.2,47.7,55,75.3,51c8.1-1.2,21.6-6.2,28.7,0,5.3,4.8,3.6,13,3.1,19.3-2.8,34-13.8,52.7-31,80.2C67.8,163.8,63,162.5,55.9,154.3Z"/></g><path class="f" d="M39.4,99.1a23.1,23.1,0,0,1-32.6,0,22.9,22.9,0,0,1,0-32.6A23.1,23.1,0,0,1,39.4,99.1Z"/><text class="g" transform="translate(265.4 138.8)">ConnectU</text><text class="h" transform="translate(269.1 200.7) scale(0.99 1)">RLA College Alumni <tspan class="i" x="462.9" y="0">P</tspan><tspan class="j" x="493.1" y="0">o</tspan><tspan class="k" x="521.8" y="0">r</tspan><tspan x="541.9" y="0">tal</tspan></text></g></svg>